<?xml version="1.0" encoding="UTF-8"?><svg id="Layer_2" xmlns="http://www.w3.org/2000/svg" viewBox="0 0 722.97 503.22"><defs><style>.cls-1{fill:none;stroke:#010101;stroke-linejoin:round;stroke-width:15px;}</style></defs><g id="Icons"><g id="Cloud"><g id="Cloud-2"><path class="cls-1" d="M608.06,160.93c-1.58-72.03-52.9-135.84-126.5-150.41C428.56.03,376.51,17.54,340.73,52.82c-10.94-5.01-22.63-8.83-34.95-11.27-80.34-15.91-158.51,32.57-181.11,109.68-56.28,14.81-102.09,60.47-114.15,121.4-16.84,85.06,38.46,167.67,123.52,184.51,39.49,7.81,78.45.08,110.55-18.97h0c22.26,27.22,53.77,47.17,90.97,54.53,55.06,10.9,109.09-8.43,144.92-46.49,14.38,8.23,30.32,14.3,47.46,17.69,85.06,16.84,167.66-38.46,184.5-123.52,15.54-78.5-30.36-154.9-104.39-179.45Z"/></g></g></g></svg>