<?xml version="1.0" encoding="UTF-8"?><svg id="Layer_2" xmlns="http://www.w3.org/2000/svg" viewBox="0 0 722.97 503.22"><defs><style>.cls-1{fill:none;stroke:#dbd9d5;stroke-linejoin:round;stroke-width:15px;}</style></defs><g id="Icons"><path id="Cloud" class="cls-1" d="M712.45,340.38c-16.84,85.05-99.45,140.36-184.5,123.52-17.16-3.4-33.09-9.47-47.48-17.69-35.83,38.05-89.85,57.39-144.9,46.49-37.2-7.37-68.71-27.31-90.98-54.54-32.1,19.05-71.06,26.79-110.55,18.97C48.98,440.29-6.32,357.69,10.52,272.63c.54-2.75,1.16-5.47,1.84-8.15,14.38-56.84,58.57-99.11,112.32-113.25,18.96-64.71,77.06-109.26,142.74-112.5,12.58-.63,25.44.26,38.36,2.82,12.32,2.44,24.01,6.27,34.95,11.27C376.51,17.55,428.55.03,481.55,10.52c73.59,14.57,124.9,78.37,126.49,150.39,74.04,24.56,119.95,100.96,104.41,179.47Z"/></g></svg>