<?xml version="1.0" encoding="UTF-8"?><svg id="Layer_2" xmlns="http://www.w3.org/2000/svg" viewBox="0 0 722.97 451"><defs><style>.cls-1{fill:none;stroke:#dcd9d5;stroke-miterlimit:10;stroke-width:15px;}</style></defs><g id="Icons"><path id="Cloud" class="cls-1" d="M712.45,304.78c-16.84,75.96-99.44,125.34-184.5,110.3-17.14-3.02-33.08-8.44-47.46-15.79-35.83,33.99-89.86,51.25-144.92,41.51-37.2-6.57-68.71-24.38-90.97-48.69h-.01c-23.98,12.71-51.8,19.77-80.8,19.63-9.82-.05-19.76-.92-29.75-2.69C48.98,394.01-6.32,320.23,10.52,244.27c9.21-41.53,38.07-75.12,76.25-94.57,11.84-6.04,24.58-10.71,37.9-13.84,22.6-68.87,100.77-112.16,181.11-97.95,12.32,2.18,24.01,5.59,34.95,10.06C376.51,16.46,428.56.83,481.56,10.2c73.6,13.01,124.92,69.99,126.5,134.32,74.03,21.92,119.93,90.15,104.39,160.26Z"/></g></svg>