<?xml version="1.0" encoding="UTF-8"?><svg id="Layer_2" xmlns="http://www.w3.org/2000/svg" viewBox="0 0 812.3 846.93"><defs><style>.cls-1,.cls-2{fill:none;}.cls-1,.cls-2,.cls-3,.cls-4{stroke:#dbd9d5;stroke-miterlimit:10;stroke-width:15px;}.cls-2,.cls-3,.cls-4{stroke-linecap:round;}.cls-5{fill:#dbd9d5;stroke-width:0px;}.cls-3{fill:#759fb2;}.cls-4{fill:#374061;}</style></defs><g id="Icons"><path class="cls-1" d="M337.98,26.36L12.61,589.92c-14.52,25.14,3.63,56.57,32.66,56.57h650.75c29.03,0,47.18-31.43,32.66-56.57L403.31,26.36c-14.52-25.14-50.81-25.14-65.33,0Z"/><path class="cls-5" d="M336.41,444.43l-7.08-236.12h82.64l-7.08,236.12h-68.48ZM330.27,527.08c0-22.2,17.47-40.14,40.61-40.14s40.14,17.95,40.14,40.14-17.47,40.14-40.14,40.14-40.61-18.42-40.61-40.14Z"/><line class="cls-2" x1="804.8" y1="139.3" x2="734.15" y2="139.3"/><line class="cls-2" x1="734.15" y1="74.26" x2="768.67" y2="74.26"/><line class="cls-2" x1="734.15" y1="204.33" x2="768.67" y2="204.33"/><line class="cls-2" x1="804.8" y1="269.37" x2="734.15" y2="269.37"/><line class="cls-2" x1="804.8" y1="399.44" x2="734.15" y2="399.44"/><line class="cls-2" x1="734.15" y1="334.41" x2="768.67" y2="334.41"/><line class="cls-2" x1="734.15" y1="464.48" x2="768.67" y2="464.48"/><path class="cls-4" d="M691.01,510.3V62.46c0-7.19-5.83-13.02-13.02-13.02h-157c-7.2,0-13.02,5.83-13.02,13.02v447.84c-51.39,31.04-85.75,87.44-85.75,151.86,0,97.9,79.36,177.27,177.27,177.27,97.9,0,177.27-79.37,177.27-177.27,0-64.42-34.36-120.82-85.75-151.86ZM599.49,787.51c-69.23,0-125.35-56.12-125.35-125.35,0-55.13,35.58-101.94,85.03-118.72v-105.36c0-4.15,3.36-7.51,7.51-7.51h65.62c4.14,0,7.51,3.36,7.51,7.51v105.36c49.45,16.78,85.03,63.59,85.03,118.72,0,69.23-56.12,125.35-125.35,125.35Z"/><path class="cls-3" d="M639.81,543.44v-105.36c0-4.15-3.37-7.51-7.51-7.51h-65.62c-4.15,0-7.51,3.36-7.51,7.51v105.36c-49.45,16.78-85.03,63.59-85.03,118.72,0,69.23,56.12,125.35,125.35,125.35,69.23,0,125.35-56.12,125.35-125.35,0-55.13-35.58-101.94-85.03-118.72Z"/></g></svg>