<?xml version="1.0" encoding="UTF-8"?><svg id="Layer_2" xmlns="http://www.w3.org/2000/svg" viewBox="0 0 722.97 559.78"><defs><style>.cls-1{fill:none;stroke:#010101;stroke-linecap:round;stroke-linejoin:round;stroke-width:15px;}</style></defs><g id="Icons"><path class="cls-1" d="M684.06,551.78c-52.32,0-61.25-48.32-105.02-48.32s-58.42,48.82-112.16,48.82-64.49-48.82-108.25-48.82-52.7,48.32-105.02,48.32-48.73-48.32-98.45-48.32-45.63,48.32-101.36,48.32"/><path class="cls-1" d="M684.06,464.41c-52.32,0-61.25-48.32-105.02-48.32s-58.42,48.82-112.16,48.82-64.49-48.82-108.25-48.82-52.7,48.32-105.02,48.32-48.73-48.32-98.45-48.32-45.63,48.32-101.36,48.32"/><path class="cls-1" d="M49.06,409.52C16.31,373.92.41,323.71,10.52,272.63c12.06-60.93,57.87-106.59,114.15-121.4,22.6-77.11,100.77-125.59,181.11-109.68,12.32,2.44,24.01,6.26,34.95,11.27C376.51,17.54,428.56.03,481.56,10.52c73.6,14.57,124.92,78.38,126.5,150.41,74.03,24.55,119.93,100.95,104.39,179.45-5.16,26.08-12.51,45.46-28.21,64.72"/></g></svg>