<?xml version="1.0" encoding="UTF-8"?><svg id="Layer_2" xmlns="http://www.w3.org/2000/svg" viewBox="0 0 813.3 846.93"><defs><style>.cls-1,.cls-2,.cls-3,.cls-4{stroke:#dbd9d5;stroke-miterlimit:10;stroke-width:15px;}.cls-1,.cls-3{fill:none;}.cls-2{fill:#b26c64;}.cls-2,.cls-3,.cls-4{stroke-linecap:round;}.cls-5{fill:#dbd9d5;stroke-width:0px;}.cls-4{fill:#374061;}</style></defs><g id="Icons"><path class="cls-1" d="M337.98,26.36L12.61,589.92c-14.52,25.14,3.63,56.57,32.66,56.57h650.75c29.03,0,47.18-31.43,32.66-56.57L403.31,26.36c-14.52-25.14-50.81-25.14-65.33,0Z"/><path class="cls-5" d="M336.41,444.43l-7.08-236.12h82.64l-7.08,236.12h-68.48ZM330.27,527.08c0-22.2,17.47-40.14,40.61-40.14s40.14,17.95,40.14,40.14-17.47,40.14-40.14,40.14-40.61-18.42-40.61-40.14Z"/><path class="cls-4" d="M695.42,510.31V62.46c0-7.19-5.83-13.02-13.02-13.02h-157c-7.19,0-13.02,5.83-13.02,13.02v447.85c-51.39,31.04-85.75,87.44-85.75,151.85,0,97.9,79.37,177.27,177.27,177.27,97.91,0,177.27-79.37,177.27-177.27,0-64.41-34.36-120.81-85.75-151.85Z"/><path class="cls-2" d="M644.22,543.44V111.86c0-6.37-5.17-11.54-11.54-11.54h-57.55c-6.38,0-11.55,5.17-11.55,11.54v431.58c-49.45,16.78-85.03,63.59-85.03,118.72,0,69.23,56.12,125.35,125.35,125.35,69.23,0,125.35-56.12,125.35-125.35,0-55.13-35.58-101.94-85.03-118.72Z"/><line class="cls-3" x1="805.8" y1="139.3" x2="735.16" y2="139.3"/><line class="cls-3" x1="735.16" y1="74.26" x2="769.67" y2="74.26"/><line class="cls-3" x1="735.16" y1="204.33" x2="769.67" y2="204.33"/><line class="cls-3" x1="805.8" y1="269.37" x2="735.16" y2="269.37"/><line class="cls-3" x1="805.8" y1="399.44" x2="735.16" y2="399.44"/><line class="cls-3" x1="735.16" y1="334.41" x2="769.67" y2="334.41"/><line class="cls-3" x1="735.16" y1="464.48" x2="769.67" y2="464.48"/></g></svg>