<?xml version="1.0" encoding="UTF-8"?><svg id="Layer_2" xmlns="http://www.w3.org/2000/svg" viewBox="0 0 641.61 693.77"><defs><style>.cls-1{stroke-miterlimit:10;}.cls-1,.cls-2{fill:none;stroke:#dbd9d5;stroke-width:15px;}.cls-2{stroke-linejoin:round;}</style></defs><g id="Icons"><path class="cls-2" d="M569.1,302.77c-8.09,33-59.8,63.76-115.36,34.89-17.21,14.77-38.95,27.1-65.64,24.21-31.41-3.4-49.41-26.22-49.41-26.22-13.71,6.57-25.5,13.69-41.29,13.04-8.83-51.86.79-106.69,21.45-158.66,34.02-19.68,73.55,4.88,81.7,11.35,17.18-13.69,31.82-27.93,57.67-26.58,46.39,2.41,59.99,30.4,60.75,58.35,35.55,9.52,57.59,39.17,50.13,69.62Z"/><path class="cls-1" d="M633.45,589.88c-29.91,26.35-65.04,47.69-104.5,62.24-80.17,29.57-164.29,26.07-237.73-3.16,6.27-7.94,10.79-17.45,12.89-28.05,6.54-33.02-12.77-65.17-43.92-75.5-.67-30.31-22.26-57.15-53.23-63.28-22.3-4.41-44.19,2.95-59.25,17.8-4.6-2.11-9.52-3.72-14.71-4.75-4.78-.95-9.54-1.35-14.21-1.26-9.85-18.86-18.02-38.95-24.25-60.15C44.22,262.56,138.39,81.02,309.08,24.47c43.83-14.52,88.52-19.42,131.79-15.85,1.7.14,2.4,2.24,1.15,3.39-48.96,45.23-95.77,109.11-123.17,178.02-20.66,51.97-30.28,106.8-21.45,158.66,1.8,10.63,4.39,21.14,7.81,31.47,42.26,127.55,200.69,193.04,327.14,206.32,1.69.17,2.38,2.27,1.1,3.4Z"/><g id="Cloud"><path class="cls-2" d="M260.19,545.41c-.67-30.31-22.26-57.15-53.23-63.28-22.3-4.41-44.19,2.95-59.25,17.8-4.6-2.11-9.52-3.72-14.71-4.75-4.78-.95-9.54-1.35-14.21-1.26-28.42.58-53.83,19.55-61.99,47.41-23.68,6.23-42.95,25.45-48.03,51.08-7.08,35.79,16.19,70.55,51.97,77.63,16.62,3.29,33.02.04,46.52-7.98h.01c9.36,11.46,22.62,19.85,38.27,22.94,23.16,4.59,45.9-3.54,60.97-19.56,6.05,3.47,12.76,6.02,19.97,7.45,25.19,4.98,49.86-5.06,64.74-23.93,6.27-7.94,10.79-17.45,12.89-28.05,6.54-33.02-12.77-65.17-43.92-75.5Z"/></g></g></svg>