<?xml version="1.0" encoding="UTF-8"?><svg id="Layer_2" xmlns="http://www.w3.org/2000/svg" viewBox="0 0 913.72 750.65"><defs><style>.cls-1{stroke-linecap:round;}.cls-1,.cls-2{stroke-linejoin:round;}.cls-1,.cls-2,.cls-3{fill:none;stroke:#010101;stroke-width:15px;}.cls-3{stroke-miterlimit:10;}</style></defs><g id="Icons"><g id="Cloud"><g id="Cloud-2"><path class="cls-2" d="M816.75,183.3c-1.32-60-44.07-113.16-105.37-125.29-44.15-8.74-87.51,5.84-117.31,35.23-9.12-4.17-18.86-7.35-29.12-9.39-65.29-12.93-128.87,25.2-149.4,86.72,62.97,10.83,116.43,49.56,147.25,103.05,17.96,31.16,28.25,67.33,28.25,105.92,0,27.1-5.07,53.02-14.32,76.84,4.24,1.3,8.59,2.4,13.04,3.28,45.86,9.08,90.87-7.02,120.71-38.73,11.98,6.86,25.26,11.92,39.54,14.74,70.85,14.03,139.66-32.04,153.69-102.89,12.94-65.39-25.29-129.03-86.96-149.48Z"/></g></g><g id="Sun"><path class="cls-3" d="M591.05,379.54c0,27.1-5.07,53.02-14.32,76.84-30.7,79.12-107.42,135.19-197.2,135.19-47.82,0-91.93-15.91-127.36-42.74-51.12-38.69-84.16-100.13-84.16-169.29,0-117.11,94.71-212.03,211.52-212.03,12.28,0,24.31,1.05,36.02,3.06,62.97,10.83,116.43,49.56,147.25,103.05,17.96,31.16,28.25,67.33,28.25,105.92Z"/><line class="cls-1" x1="369.53" y1="122.73" x2="369.53" y2="7.5"/><line class="cls-1" x1="379.53" y1="743.15" x2="379.53" y2="627.93"/><line class="cls-1" x1="561.12" y1="197.94" x2="642.6" y2="116.47"/><line class="cls-1" x1="116.47" y1="642.6" x2="197.94" y2="561.12"/><line class="cls-1" x1="659.99" y1="642.6" x2="578.51" y2="561.12"/><line class="cls-1" x1="7.5" y1="379.53" x2="122.73" y2="379.53"/><line class="cls-1" x1="116.47" y1="116.47" x2="197.94" y2="197.94"/><line class="cls-1" x1="635.26" y1="379.53" x2="750.49" y2="379.53"/></g></g></svg>