<?xml version="1.0" encoding="UTF-8"?><svg id="Layer_2" xmlns="http://www.w3.org/2000/svg" viewBox="0 0 698.05 718.24"><defs><style>.cls-1{stroke-miterlimit:10;}.cls-1,.cls-2{fill:none;stroke:#dbd9d5;stroke-width:15px;}.cls-2{stroke-linejoin:round;}</style></defs><g id="Icons"><path class="cls-1" d="M680.72,589.88c-29.91,26.35-65.04,47.69-104.5,62.24-63.65,23.47-129.78,26.11-191.08,11.57,9.64-11.2,16.61-24.97,19.69-40.51,8.75-44.24-17.12-87.3-58.84-101.14-.89-40.6-29.82-76.56-71.3-84.77-29.87-5.91-59.21,3.96-79.37,23.84-6.17-2.82-12.76-4.98-19.71-6.35-9.23-1.83-18.41-2.15-27.28-1.13-2.36-6.51-4.54-13.13-6.52-19.87C91.49,262.56,185.66,81.02,356.35,24.47c43.83-14.52,88.52-19.42,131.79-15.85,1.7.14,2.4,2.24,1.15,3.39-30.31,28-59.79,63.14-84.35,102.2-43.33.93-82.02,28.23-94.48,68.26-36.2,8.97-65.67,36.63-73.43,73.55-10.84,51.54,24.74,101.58,79.46,111.79,6.62,1.23,13.22,1.83,19.72,1.83,4.34,0,8.64-.27,12.88-.79,1.02,3.79,2.15,7.56,3.39,11.31,42.26,127.55,200.7,193.04,327.14,206.31,1.69.18,2.38,2.28,1.1,3.41Z"/><path class="cls-2" d="M688.6,297.06c-10.83,51.54-63.97,85.05-118.69,74.85-11.04-2.06-21.29-5.73-30.54-10.73-23.05,23.06-57.81,34.78-93.23,28.17-23.93-4.46-44.2-16.54-58.52-33.03-11.68,6.52-24.77,10.86-38.53,12.53-4.24.52-8.54.79-12.88.79-6.5,0-13.1-.6-19.72-1.83-54.72-10.21-90.3-60.25-79.46-111.79,7.76-36.92,37.23-64.58,73.43-73.55,12.46-40.03,51.15-67.33,94.48-68.26,7.25-.16,14.63.42,22.04,1.8,7.92,1.48,15.45,3.8,22.49,6.83,23.02-21.37,56.49-31.98,90.59-25.63,47.34,8.83,80.37,47.49,81.38,91.13,47.63,14.87,77.16,61.17,67.16,108.72Z"/><g id="Cloud"><path class="cls-2" d="M345.99,522.04c-.89-40.6-29.82-76.56-71.3-84.77-29.87-5.91-59.21,3.96-79.37,23.84-6.17-2.82-12.76-4.98-19.71-6.35-9.23-1.83-18.41-2.15-27.28-1.13-34.66,3.97-64.65,28.34-74.8,62.95-31.72,8.35-57.54,34.08-64.33,68.42-9.5,47.95,21.67,94.5,69.62,103.99,22.26,4.41,44.22.05,62.31-10.68h.01c12.54,15.34,30.3,26.58,51.26,30.73,31.04,6.14,61.49-4.76,81.68-26.21,8.1,4.65,17.09,8.07,26.76,9.98,32.41,6.41,64.18-5.75,84.3-29.12,9.64-11.2,16.61-24.97,19.69-40.51,8.75-44.24-17.12-87.3-58.84-101.14Z"/></g></g></svg>