<?xml version="1.0" encoding="UTF-8"?><svg id="Layer_2" xmlns="http://www.w3.org/2000/svg" viewBox="0 0 918.06 689.59"><defs><style>.cls-1{stroke-linecap:round;}.cls-1,.cls-2{stroke-linejoin:round;}.cls-1,.cls-2,.cls-3{fill:none;stroke:#010101;stroke-width:15px;}.cls-3{stroke-miterlimit:10;}</style></defs><g id="Icons"><g id="Sun"><path class="cls-3" d="M462.51,225.1c-65.68,3.24-123.78,47.79-142.74,112.5-53.75,14.14-97.94,56.41-112.32,113.25-42.21-31.72-69.51-82.2-69.51-139.07,0-96.01,77.83-173.84,173.84-173.84,64.45,0,120.71,35.07,150.73,87.16Z"/><line class="cls-1" x1="311.79" y1="101.74" x2="311.79" y2="7.5"/><line class="cls-1" x1="460.31" y1="163.26" x2="526.95" y2="96.62"/><line class="cls-1" x1="96.62" y1="526.95" x2="163.26" y2="460.31"/><line class="cls-1" x1="7.5" y1="311.79" x2="101.74" y2="311.79"/><line class="cls-1" x1="96.62" y1="96.62" x2="163.26" y2="163.26"/></g><path id="Cloud" class="cls-2" d="M907.54,526.75c-16.84,85.05-99.45,140.36-184.5,123.52-17.16-3.4-33.09-9.47-47.48-17.69-35.83,38.05-89.85,57.39-144.9,46.49-37.2-7.37-68.71-27.31-90.98-54.54-32.1,19.05-71.06,26.79-110.55,18.97-85.06-16.84-140.36-99.44-123.52-184.5.54-2.75,1.16-5.47,1.84-8.15,14.38-56.84,58.57-99.11,112.32-113.25,18.96-64.71,77.06-109.26,142.74-112.5,12.58-.63,25.44.26,38.36,2.82,12.32,2.44,24.01,6.27,34.95,11.27,35.78-35.27,87.82-52.79,140.82-42.3,73.59,14.57,124.9,78.37,126.49,150.39,74.04,24.56,119.95,100.96,104.41,179.47Z"/></g></svg>