<?xml version="1.0" encoding="UTF-8"?><svg id="Layer_2" xmlns="http://www.w3.org/2000/svg" viewBox="0 0 936.9 673.92"><defs><style>.cls-1{stroke-miterlimit:10;}.cls-1,.cls-2{fill:none;stroke:#dbd9d5;stroke-width:15px;}.cls-2{stroke-linejoin:round;}</style></defs><g id="Icons"><path class="cls-1" d="M929.14,360.82c-15.98,21.21-36.02,39.86-59.81,54.66-50.91,31.68-109.6,40-163.8,28.28-12.79-50.46-50.52-92.65-101.91-109.68-1.16-52.28-28.7-100.19-71.98-127.81,6.68-68.81,45.38-133.49,109.83-170.68,26.64-15.37,55.13-24.58,83.85-28.07,1.12-.14,1.86,1.15,1.2,2.06-49.35,68.89-84.46,181.05-39.74,258.57,44.72,77.54,156.89,98.95,241.17,90.6,1.12-.11,1.86,1.17,1.18,2.07Z"/><g id="Snowcloud"><path class="cls-2" d="M707.27,512.22c-16.72,84.42-98.72,139.32-183.14,122.61-17.04-3.38-32.85-9.4-47.14-17.57-35.56,37.77-89.18,56.98-143.84,46.15-36.92-7.32-68.2-27.11-90.31-54.14-31.86,18.91-70.54,26.59-109.74,18.83-84.43-16.72-139.33-98.71-122.61-183.14.54-2.74,1.16-5.43,1.83-8.1,14.27-56.42,58.13-98.38,111.49-112.41,18.82-64.24,76.49-108.46,141.69-111.68,12.48-.63,25.24.25,38.07,2.79,12.23,2.43,23.83,6.23,34.7,11.19,35.52-35.01,87.17-52.41,139.78-41.99,19.63,3.89,37.67,11.32,53.58,21.47,43.28,27.62,70.82,75.53,71.98,127.81,51.39,17.03,89.11,59.22,101.91,109.68,5.5,21.74,6.38,45.01,1.74,68.46Z"/></g></g></svg>