<?xml version="1.0" encoding="UTF-8"?><svg id="Layer_2" xmlns="http://www.w3.org/2000/svg" viewBox="0 0 757.99 750.65"><defs><style>.cls-1{stroke-linecap:round;}.cls-1,.cls-2{stroke-linejoin:round;}.cls-1,.cls-2,.cls-3{fill:none;stroke:#010101;stroke-width:15px;}.cls-3{stroke-miterlimit:10;}</style></defs><g id="Icons"><line class="cls-1" x1="379.53" y1="122.73" x2="379.53" y2="7.5"/><line class="cls-1" x1="379.53" y1="743.15" x2="379.53" y2="627.93"/><line class="cls-1" x1="561.12" y1="197.94" x2="642.6" y2="116.47"/><line class="cls-1" x1="116.47" y1="642.6" x2="197.94" y2="561.12"/><line class="cls-1" x1="659.99" y1="642.6" x2="578.51" y2="561.12"/><line class="cls-1" x1="7.5" y1="379.53" x2="122.73" y2="379.53"/><line class="cls-1" x1="116.47" y1="116.47" x2="197.94" y2="197.94"/><line class="cls-1" x1="635.26" y1="379.53" x2="750.49" y2="379.53"/><path class="cls-3" d="M591.04,379.54c0,27.1-5.07,53.02-14.32,76.84-30.7,79.12-107.42,135.19-197.2,135.19-47.82,0-91.93-15.91-127.36-42.74-12.58-9.53-24.07-20.43-34.25-32.49,20.34,3.68,39.93-9.62,43.96-29.97,3.76-18.97-7.33-37.43-25.23-43.37-.38-17.4-12.78-32.83-30.57-36.35-12.8-2.53-25.38,1.7-34.03,10.23-.27-.13-.55-.25-.83-.36-2.11-12.01-3.21-24.37-3.21-36.98,0-117.11,94.71-212.03,211.52-212.03,12.28,0,24.31,1.05,36.02,3.06,48.05,8.26,90.56,32.77,121.71,67.69-8.23,5.08-14.61,12.93-17.52,22.49-14.92,3.79-27.07,15.47-30.27,31.06-4.47,21.76,10.2,42.89,32.76,47.2,2.73.52,5.45.77,8.13.77,7.6,0,14.9-2.02,21.19-5.62,5.91,6.96,14.26,12.06,24.13,13.95,4.45.85,8.87.98,13.13.47,1.48,10.1,2.24,20.44,2.24,30.96Z"/><g id="Cloud"><g id="Cloud-2"><path class="cls-2" d="M647.94,263.23c-.42-18.42-14.03-34.75-33.55-38.47-14.06-2.69-27.86,1.79-37.35,10.82-2.9-1.28-6-2.26-9.27-2.89-10.97-2.1-21.79.18-30.52,5.57-8.23,5.08-14.61,12.93-17.52,22.49-14.92,3.79-27.07,15.47-30.27,31.06-4.47,21.76,10.2,42.89,32.76,47.2,2.73.52,5.45.77,8.13.77,7.6,0,14.9-2.02,21.19-5.62,5.91,6.96,14.26,12.06,24.13,13.95,4.45.85,8.87.98,13.13.47,9.75-1.14,18.69-5.6,25.31-12.37,3.81,2.11,8.04,3.66,12.59,4.53,22.56,4.31,44.46-9.84,48.93-31.6,4.12-20.08-8.05-39.63-27.69-45.91Z"/></g></g><g id="Cloud-3"><g id="Cloud-4"><path class="cls-2" d="M236.64,443c-.38-17.4-12.78-32.83-30.57-36.35-12.8-2.53-25.38,1.7-34.03,10.23-.27-.13-.55-.25-.83-.36-2.4-1.04-4.95-1.84-7.62-2.37-19.41-3.84-38.3,7.87-43.77,26.51-13.6,3.58-24.67,14.61-27.58,29.34-4.07,20.55,9.29,40.52,29.85,44.59,2.48.49,4.96.73,7.4.73,6.93,0,13.58-1.91,19.32-5.32,5.38,6.58,12.99,11.4,21.98,13.18,13.31,2.64,26.37-2.04,35.03-11.23,3.47,1.98,7.32,3.45,11.46,4.27l.63.12c20.34,3.68,39.93-9.62,43.96-29.97,3.76-18.97-7.33-37.43-25.23-43.37Z"/></g></g></g></svg>