<?xml version="1.0" encoding="UTF-8"?><svg id="Layer_2" xmlns="http://www.w3.org/2000/svg" viewBox="0 0 819.95 781.69"><defs><style>.cls-1{stroke-miterlimit:10;}.cls-1,.cls-2,.cls-3{fill:none;stroke:#dbd9d5;stroke-width:15px;}.cls-2{stroke-linecap:round;}.cls-2,.cls-3{stroke-linejoin:round;}</style></defs><g id="Icons"><path class="cls-1" d="M812.23,316c-13.95,18.52-31.45,34.8-52.22,47.73-44.45,27.66-95.7,34.93-143.02,24.69-11.17-44.06-44.11-80.9-88.98-95.77-1.01-45.65-25.06-87.48-62.85-111.6,5.83-60.08,39.62-116.56,95.9-149.03,23.26-13.42,48.14-21.46,73.21-24.51.98-.12,1.62,1,1.05,1.8-43.09,60.15-73.75,158.08-34.7,225.77,39.05,67.7,136.99,86.4,210.58,79.11.98-.1,1.62,1.02,1.03,1.81Z"/><g id="Snowcloud"><path class="cls-3" d="M618.51,448.2c-14.6,73.71-86.2,121.65-159.91,107.06-14.88-2.95-28.68-8.21-41.16-15.34-31.05,32.98-77.87,49.75-125.59,40.3-32.24-6.39-59.55-23.67-78.85-47.27-27.82,16.51-61.59,23.22-95.82,16.44-73.72-14.6-121.66-86.19-107.06-159.91.47-2.39,1.01-4.74,1.6-7.07,12.46-49.26,50.76-85.9,97.35-98.15,16.43-56.09,66.79-94.7,123.72-97.51,10.9-.55,22.04.22,33.24,2.44,10.68,2.12,20.81,5.44,30.3,9.77,31.01-30.57,76.11-45.76,122.05-36.66,17.14,3.4,32.89,9.88,46.78,18.75,37.79,24.12,61.84,65.95,62.85,111.6,44.87,14.87,77.81,51.71,88.98,95.77,4.8,18.98,5.57,39.3,1.52,59.78Z"/></g><g id="Raincloud"><g id="Rain"><line class="cls-2" x1="276.48" y1="613.47" x2="213.39" y2="731.59"/><line class="cls-2" x1="439.57" y1="585.5" x2="376.49" y2="703.62"/><line class="cls-2" x1="142.82" y1="582.29" x2="79.74" y2="700.41"/><line class="cls-2" x1="332.33" y1="656.07" x2="269.25" y2="774.19"/><line class="cls-2" x1="477.18" y1="651.74" x2="414.09" y2="769.86"/><line class="cls-2" x1="184.39" y1="641.35" x2="121.3" y2="759.47"/></g></g></g></svg>