<?xml version="1.0" encoding="UTF-8"?><svg id="Layer_2" xmlns="http://www.w3.org/2000/svg" viewBox="0 0 918.06 910.99"><defs><style>.cls-1{stroke-linecap:round;}.cls-1,.cls-2{stroke-linejoin:round;}.cls-1,.cls-2,.cls-3{fill:none;stroke:#010101;stroke-width:15px;}.cls-3{stroke-miterlimit:10;}</style></defs><g id="Icons"><g id="Sun"><path class="cls-3" d="M462.51,225.1c-65.68,3.24-123.78,47.79-142.74,112.5-53.75,14.14-97.94,56.41-112.32,113.25-42.21-31.72-69.51-82.2-69.51-139.07,0-96.01,77.83-173.84,173.84-173.84,64.45,0,120.71,35.07,150.73,87.16Z"/><line class="cls-1" x1="311.79" y1="101.74" x2="311.79" y2="7.5"/><line class="cls-1" x1="460.31" y1="163.26" x2="526.95" y2="96.62"/><line class="cls-1" x1="96.62" y1="526.95" x2="163.26" y2="460.31"/><line class="cls-1" x1="7.5" y1="311.79" x2="101.74" y2="311.79"/><line class="cls-1" x1="96.62" y1="96.62" x2="163.26" y2="163.26"/></g><g id="Raincloud"><g id="Cloud"><path class="cls-2" d="M803.15,347.29c-1.58-72.03-52.91-135.83-126.5-150.4-53-10.49-105.04,7.02-140.82,42.3-10.94-5.01-22.64-8.83-34.96-11.27-80.34-15.91-158.51,32.56-181.11,109.68-56.28,14.81-102.09,60.47-114.15,121.4-16.84,85.06,38.46,167.66,123.52,184.5,39.5,7.82,78.46.09,110.56-18.96h.01c22.26,27.22,53.76,47.16,90.96,54.52,55.06,10.9,109.09-8.43,144.91-46.49,14.38,8.24,30.32,14.31,47.47,17.7,85.06,16.83,167.66-38.47,184.5-123.53,15.54-78.49-30.36-154.9-104.39-179.45Z"/></g><g id="Rain"><line class="cls-1" x1="505.98" y1="717.89" x2="433.13" y2="854.29"/><line class="cls-1" x1="694.32" y1="685.59" x2="621.47" y2="821.99"/><line class="cls-1" x1="351.64" y1="681.89" x2="278.79" y2="818.29"/><line class="cls-1" x1="570.48" y1="767.09" x2="497.63" y2="903.49"/><line class="cls-1" x1="737.74" y1="762.09" x2="664.89" y2="898.49"/><line class="cls-1" x1="399.64" y1="750.09" x2="326.79" y2="886.49"/></g></g></g></svg>