<?xml version="1.0" encoding="UTF-8"?><svg id="Layer_2" xmlns="http://www.w3.org/2000/svg" viewBox="0 0 817.06 804.44"><defs><style>.cls-1,.cls-2{stroke-miterlimit:10;}.cls-1,.cls-2,.cls-3,.cls-4{fill:none;stroke-width:15px;}.cls-1,.cls-2,.cls-4{stroke:#dbd9d5;}.cls-2,.cls-3,.cls-4{stroke-linecap:round;}.cls-3{stroke:#ffe193;}.cls-3,.cls-4{stroke-linejoin:round;}</style></defs><g id="Icons"><line id="Rain" class="cls-2" x1="330.86" y1="655.8" x2="267.81" y2="773.85"/><line id="Rain-2" class="cls-2" x1="144.92" y1="580.93" x2="81.87" y2="698.98"/><line id="Rain-3" class="cls-2" x1="443.15" y1="596.77" x2="380.1" y2="714.82"/><line id="Rain-4" class="cls-2" x1="480.74" y1="678.88" x2="417.68" y2="796.94"/><line id="Rain-5" class="cls-2" x1="176.45" y1="678.88" x2="113.4" y2="796.94"/><polyline id="Lightening" class="cls-3" points="259.37 529.77 203.77 632.25 274.92 617.8 224.83 712.75"/><path class="cls-1" d="M809.33,316c-13.95,18.52-31.45,34.8-52.22,47.73-44.45,27.66-95.7,34.93-143.02,24.69-11.17-44.06-44.11-80.9-88.98-95.77-1.01-45.65-25.06-87.48-62.85-111.6,5.83-60.08,39.62-116.56,95.9-149.03,23.26-13.42,48.14-21.46,73.21-24.51.98-.12,1.62,1,1.05,1.8-43.09,60.15-73.75,158.08-34.7,225.77,39.05,67.7,136.99,86.4,210.58,79.11.98-.1,1.62,1.02,1.03,1.81Z"/><path id="Lightning_cloud" class="cls-4" d="M297.45,567.7c42.48,9.84,87.65,1.29,115.88-31.45,77.57,46.01,183.46-1.72,199.41-90.98,13.36-67.48-26.1-133.16-89.74-154.27,2.59-114.05-152.54-176.33-229.81-92.94-73.38-34.75-164.35,7.27-185.74,84.6-193.6,60.13-76.77,324.65,103.1,229.05"/></g></svg>