<?xml version="1.0" encoding="UTF-8"?><svg id="Layer_2" xmlns="http://www.w3.org/2000/svg" viewBox="0 0 767.22 750.65"><defs><style>.cls-1{stroke-linecap:round;}.cls-1,.cls-2{stroke-linejoin:round;}.cls-1,.cls-2,.cls-3{fill:none;stroke:#010101;stroke-width:15px;}.cls-3{stroke-miterlimit:10;}</style></defs><g id="Icons"><line class="cls-1" x1="388.23" y1="122.73" x2="388.23" y2="7.5"/><line class="cls-1" x1="388.77" y1="743.15" x2="388.77" y2="627.93"/><line class="cls-1" x1="669.22" y1="642.6" x2="587.75" y2="561.12"/><line class="cls-1" x1="16.74" y1="379.53" x2="131.96" y2="379.53"/><line class="cls-1" x1="125.7" y1="116.47" x2="207.18" y2="197.94"/><line class="cls-1" x1="644.5" y1="379.53" x2="759.72" y2="379.53"/><path class="cls-3" d="M600.29,379.54c0,27.1-5.07,53.02-14.32,76.84-30.7,79.12-107.42,135.19-197.2,135.19-12.32,0-24.4-1.06-36.14-3.09,5.16-36.8-16.91-71.8-51.72-83.34-.77-35.19-25.84-66.37-61.8-73.49-18.89-3.74-37.54-.19-53.03,8.7-5.74-19.26-8.83-39.68-8.83-60.81,0-117.11,94.71-212.03,211.52-212.03,11.78,0,23.33.97,34.58,2.82-15.55,11.39-27.03,28.41-31.07,48.8-8.55,43.18,19.52,85.12,62.7,93.66,20.05,3.97,39.83.04,56.12-9.63h.01c11.29,13.82,27.29,23.95,46.17,27.68,12.73,2.52,25.36,1.86,37.05-1.44,3.9,16.07,5.96,32.86,5.96,50.14Z"/><g id="Cloud"><g id="Cloud-2"><path class="cls-2" d="M300.91,505.14c-.77-35.19-25.84-66.37-61.8-73.49-18.89-3.74-37.54-.19-53.03,8.7-5.74,3.29-11.04,7.31-15.77,11.97-5.35-2.45-11.06-4.31-17.08-5.51-39.25-7.77-77.44,15.92-88.48,53.59-27.5,7.23-49.88,29.54-55.77,59.31-8.23,41.55,18.79,81.91,60.35,90.14,5.03,1,10.03,1.47,14.97,1.47,14.01,0,27.44-3.86,39.04-10.74,10.88,13.3,26.27,23.05,44.44,26.64,26.9,5.33,53.3-4.11,70.81-22.71,7.02,4.02,14.81,6.99,23.18,8.64,41.56,8.23,81.91-18.79,90.14-60.34.29-1.44.53-2.89.72-4.33,5.16-36.8-16.91-71.8-51.72-83.34Z"/></g></g><g id="Cloud-3"><g id="Cloud-4"><path class="cls-2" d="M695.6,162.43c-.8-36.56-26.85-68.95-64.21-76.35-26.9-5.32-53.32,3.56-71.49,21.47-5.55-2.54-11.48-4.48-17.74-5.72-40.78-8.07-80.46,16.54-91.93,55.68-9.74,2.56-18.85,6.94-26.88,12.82-15.55,11.39-27.03,28.41-31.07,48.8-8.55,43.18,19.52,85.12,62.7,93.66,20.05,3.97,39.83.04,56.12-9.63h.01c11.29,13.82,27.29,23.95,46.17,27.68,12.73,2.52,25.36,1.86,37.05-1.44,13.97-3.93,26.61-11.64,36.52-22.15,7.3,4.17,15.39,7.25,24.09,8.98,43.18,8.54,85.11-19.53,93.65-62.71,7.89-39.84-15.41-78.63-52.99-91.09Z"/></g></g></g></svg>