<?xml version="1.0" encoding="UTF-8"?><svg id="Layer_2" xmlns="http://www.w3.org/2000/svg" viewBox="0 0 744.62 624.44"><defs><style>.cls-1{stroke-linejoin:round;}.cls-1,.cls-2{fill:none;stroke:#010101;stroke-linecap:round;stroke-width:15px;}.cls-2{stroke-miterlimit:10;}</style></defs><g id="Icons"><g id="Sun"><path class="cls-2" d="M169.66,421.24c-3.78-15.69-5.78-32.08-5.78-48.93,0-115.11,93.31-208.42,208.42-208.42s208.42,93.31,208.42,208.42c0,14.39-1.46,28.44-4.23,42"/><line class="cls-1" x1="372.31" y1="120.49" x2="372.31" y2="7.5"/><line class="cls-1" x1="550.37" y1="194.25" x2="630.27" y2="114.35"/><line class="cls-1" x1="624.13" y1="372.31" x2="737.12" y2="372.31"/><line class="cls-1" x1="7.5" y1="372.31" x2="120.49" y2="372.31"/><line class="cls-1" x1="114.35" y1="114.35" x2="194.25" y2="194.25"/></g><path class="cls-1" d="M737.12,616.36c-60.56,0-70.9-55.93-121.57-55.93s-67.63,56.51-129.84,56.51-74.65-56.51-125.32-56.51-61.01,55.93-121.57,55.93-56.41-55.93-113.97-55.93-52.83,55.93-117.34,55.93"/><path class="cls-1" d="M737.12,515.22c-60.56,0-70.9-55.93-121.57-55.93s-67.63,56.51-129.84,56.51-74.65-56.51-125.32-56.51-61.01,55.93-121.57,55.93-56.41-55.93-113.97-55.93-52.83,55.93-117.34,55.93"/></g></svg>