<?xml version="1.0" encoding="UTF-8"?><svg id="Layer_2" xmlns="http://www.w3.org/2000/svg" viewBox="0 0 917.61 938.84"><defs><style>.cls-1,.cls-2{stroke-linejoin:round;}.cls-1,.cls-2,.cls-3{stroke-linecap:round;}.cls-1,.cls-2,.cls-3,.cls-4{fill:none;stroke-width:15px;}.cls-1,.cls-3,.cls-4{stroke:#010101;}.cls-2{stroke:#f8b92a;}.cls-3,.cls-4{stroke-miterlimit:10;}</style></defs><g id="Icons"><g id="Sun"><path class="cls-4" d="M462.51,225.1c-65.68,3.24-123.78,47.79-142.74,112.5-53.75,14.14-97.94,56.41-112.32,113.25-42.21-31.72-69.51-82.2-69.51-139.07,0-96.01,77.83-173.84,173.84-173.84,64.45,0,120.71,35.07,150.73,87.16Z"/><line class="cls-1" x1="311.79" y1="101.74" x2="311.79" y2="7.5"/><line class="cls-1" x1="460.31" y1="163.26" x2="526.95" y2="96.62"/><line class="cls-1" x1="96.62" y1="526.95" x2="163.26" y2="460.31"/><line class="cls-1" x1="7.5" y1="311.79" x2="101.74" y2="311.79"/><line class="cls-1" x1="96.62" y1="96.62" x2="163.26" y2="163.26"/></g><g id="Thundercloud"><path id="Lightning_cloud" class="cls-1" d="M540.33,669.16c49.41,11.45,101.95,1.5,134.8-36.59,90.24,53.52,213.41-2,231.96-105.83,15.54-78.5-30.36-154.9-104.39-179.45,3.01-132.67-177.44-205.12-267.33-108.11-85.36-40.43-191.18,8.45-216.06,98.41-225.2,69.95-89.3,377.65,119.93,266.44"/><line id="Rain" class="cls-3" x1="575.75" y1="768.26" x2="502.9" y2="904.66"/><line id="Rain-2" class="cls-3" x1="360.91" y1="681.76" x2="288.06" y2="818.16"/><line id="Rain-3" class="cls-3" x1="705.49" y1="700.06" x2="632.64" y2="836.46"/><line id="Rain-4" class="cls-3" x1="748.91" y1="794.94" x2="676.06" y2="931.34"/><line id="Rain-5" class="cls-3" x1="397.33" y1="794.94" x2="324.48" y2="931.34"/><polyline id="Lightening" class="cls-2" points="493.14 622.65 428.91 741.06 511.12 724.36 453.23 834.07"/></g></g></svg>