<?xml version="1.0" encoding="UTF-8"?><svg id="Layer_2" xmlns="http://www.w3.org/2000/svg" viewBox="0 0 697.45 680.14"><defs><style>.cls-1{fill:none;stroke:#dbd9d5;stroke-linecap:round;stroke-miterlimit:10;stroke-width:15px;}</style></defs><g id="Icons"><path class="cls-1" d="M491.91,525.69c61.33,32.83,132.9,51.18,196.24,56.62,1.69.15,2.42,2.23,1.17,3.38-29.41,26.91-64.13,48.91-103.32,64.2-146.25,57.09-307.91,2.8-393.51-119.01"/><path class="cls-1" d="M135.47,293.92c16.8-118.99,97.72-224.74,218.9-267.43,43.54-15.34,88.13-21.08,131.47-18.32,1.7.11,2.44,2.19,1.21,3.37-67.55,64.8-130.17,166.29-140.76,265.88"/><path class="cls-1" d="M688.15,381.21c-41.45-12.23-55.61-53.64-99.63-53.64-51.64,0-68.93,57.6-132.34,57.6s-76.09-57.6-127.73-57.6-62.18,57.01-123.91,57.01-57.49-57.01-116.17-57.01c-43.72,0-52.19,31.65-80.87,47.79"/><path class="cls-1" d="M7.5,478.44c28.68-16.13,37.15-47.79,80.87-47.79,58.68,0,54.44,57.01,116.17,57.01s72.27-57.01,123.91-57.01,64.32,57.6,127.73,57.6,80.7-57.6,132.34-57.6c44.02,0,58.18,41.41,99.63,53.64"/></g></svg>