<?xml version="1.0" encoding="UTF-8"?><svg id="Layer_2" xmlns="http://www.w3.org/2000/svg" viewBox="0 0 645.27 658.4"><defs><style>.cls-1{fill:none;stroke:#010101;stroke-linecap:round;stroke-miterlimit:10;stroke-width:15px;}</style></defs><g id="Icons"><path class="cls-1" d="M499.49,318.95c9.7-6.12,20.18-10.48,33.26-10.48,43.77,0,52.7,48.32,105.02,48.32"/><path class="cls-1" d="M131.14,312.6c27.96,11.69,33.27,44.19,76.18,44.19,52.32,0,61.25-48.32,105.02-48.32s54.51,48.82,108.25,48.82c37.68,0,56.15-23.99,78.9-38.34"/><path class="cls-1" d="M131.14,312.6c-6.13-2.56-13.34-4.13-22.27-4.13-49.73,0-45.63,48.32-101.36,48.32"/><path class="cls-1" d="M144.88,405.75c17.53,14.32,27.57,35.77,62.44,35.77,52.32,0,61.25-48.32,105.02-48.32s54.51,48.82,108.25,48.82c26.13,0,43.02-11.54,58.51-23.4"/><path class="cls-1" d="M144.88,405.75c-8.78-7.17-19.43-12.54-36.02-12.54-49.73,0-45.63,48.32-101.36,48.32"/><path class="cls-1" d="M637.77,441.52c-52.32,0-61.25-48.32-105.02-48.32-22.49,0-37.29,12.89-53.65,25.42"/><path class="cls-1" d="M152.86,243.59c13.41,13.33,25.17,28.47,54.46,28.47,52.32,0,61.25-48.32,105.02-48.32s54.51,48.82,108.25,48.82c26.54,0,43.55-11.91,59.24-23.96"/><path class="cls-1" d="M479.83,248.6c16.08-12.35,30.77-24.86,52.93-24.86,43.77,0,52.7,48.32,105.02,48.32"/><path class="cls-1" d="M152.86,243.59c-10.54-10.48-22.1-19.85-44-19.85-49.73,0-45.63,48.32-101.36,48.32"/><path class="cls-1" d="M152.86,243.59c31.47-57.31,92.3-96.15,162.17-96.15,10.74,0,21.26.92,31.5,2.68,55.07,9.47,101.83,43.35,128.78,90.13,1.58,2.74,3.07,5.53,4.51,8.36"/><path class="cls-1" d="M144.88,405.75c12.78,29.94,33.17,55.83,58.76,75.19,30.99,23.47,69.57,37.38,111.39,37.38,71.31,0,133.19-40.44,164.07-99.7"/><line class="cls-1" x1="315.03" y1="108.28" x2="315.03" y2="7.5"/><line class="cls-1" x1="315.03" y1="550.12" x2="315.03" y2="650.9"/><line class="cls-1" x1="489.06" y1="174.06" x2="560.32" y2="102.8"/><line class="cls-1" x1="156.21" y1="491.7" x2="84.95" y2="562.96"/><line class="cls-1" x1="560.32" y1="562.96" x2="489.06" y2="491.7"/><line class="cls-1" x1="84.95" y1="102.8" x2="156.21" y2="174.06"/></g></svg>