<?xml version="1.0" encoding="UTF-8"?><svg id="Layer_2" xmlns="http://www.w3.org/2000/svg" viewBox="0 0 722.97 724.61"><defs><style>.cls-1{stroke-linecap:round;}.cls-1,.cls-2{fill:none;stroke:#010101;stroke-linejoin:round;stroke-width:15px;}</style></defs><g id="Icons"><g id="Raincloud"><g id="Cloud"><path class="cls-2" d="M608.06,160.92c-1.58-72.03-52.91-135.83-126.5-150.4C428.56.03,376.52,17.54,340.74,52.82c-10.94-5.01-22.64-8.83-34.96-11.27-80.34-15.91-158.51,32.56-181.11,109.68-56.28,14.81-102.09,60.47-114.15,121.4-16.84,85.06,38.46,167.66,123.52,184.5,39.5,7.82,78.46.09,110.56-18.96h.01c22.26,27.22,53.76,47.16,90.96,54.52,55.06,10.9,109.09-8.43,144.91-46.49,14.38,8.24,30.32,14.31,47.47,17.7,85.06,16.83,167.66-38.47,184.5-123.53,15.54-78.49-30.36-154.9-104.39-179.45Z"/></g><g id="Rain"><line class="cls-1" x1="310.89" y1="531.51" x2="238.04" y2="667.91"/><line class="cls-1" x1="499.22" y1="499.21" x2="426.37" y2="635.61"/><line class="cls-1" x1="156.55" y1="495.51" x2="83.7" y2="631.91"/><line class="cls-1" x1="375.39" y1="580.71" x2="302.54" y2="717.11"/><line class="cls-1" x1="542.65" y1="575.71" x2="469.8" y2="712.11"/><line class="cls-1" x1="204.55" y1="563.71" x2="131.7" y2="700.11"/></g></g></g></svg>