<?xml version="1.0" encoding="UTF-8"?><svg id="Layer_2" xmlns="http://www.w3.org/2000/svg" viewBox="0 0 722.97 742.38"><defs><style>.cls-1,.cls-2{stroke-width:15px;}.cls-1,.cls-2,.cls-3{stroke-linejoin:round;}.cls-1,.cls-2,.cls-3,.cls-4{fill:none;stroke:#dbd9d5;}.cls-1,.cls-3{stroke-linecap:round;}.cls-3{stroke-width:10px;}.cls-4{stroke-miterlimit:10;stroke-width:11px;}</style></defs><g id="Icons"><g id="Sleet_cloud"><circle id="Hail" class="cls-4" cx="157.42" cy="538.43" r="9.14"/><circle id="Hail-2" class="cls-4" cx="268.78" cy="684" r="9.14"/><circle id="Hail-3" class="cls-4" cx="422.22" cy="567.17" r="9.14"/><circle id="Hail-4" class="cls-4" cx="569.93" cy="525.54" r="9.14"/><g id="Snowflake"><line class="cls-3" x1="310.41" y1="516.4" x2="285.22" y2="562.17"/><line class="cls-3" x1="282.47" y1="518.14" x2="312.98" y2="560.44"/><line class="cls-3" x1="273.78" y1="540.89" x2="321.68" y2="537.82"/></g><g id="Snowflake-2"><line class="cls-3" x1="402.78" y1="691.64" x2="377.54" y2="737.38"/><line class="cls-3" x1="374.84" y1="693.35" x2="405.29" y2="735.68"/><line class="cls-3" x1="366.12" y1="716.09" x2="414.02" y2="713.08"/></g><line class="cls-1" x1="372.48" y1="580.86" x2="299.63" y2="717.26"/><line class="cls-1" x1="491.61" y1="525.54" x2="418.76" y2="661.94"/><line class="cls-1" x1="233.17" y1="512.66" x2="160.32" y2="649.06"/><line class="cls-1" x1="541.46" y1="580.86" x2="468.61" y2="717.26"/><line class="cls-1" x1="269.59" y1="592.93" x2="196.74" y2="729.33"/><path id="Cloud" class="cls-2" d="M712.45,340.38c-16.84,85.05-99.45,140.36-184.5,123.52-17.16-3.4-33.09-9.47-47.48-17.69-35.83,38.05-89.85,57.39-144.9,46.49-37.2-7.37-68.71-27.31-90.98-54.54-32.1,19.05-71.06,26.79-110.55,18.97C48.98,440.29-6.32,357.69,10.52,272.63c.54-2.75,1.16-5.47,1.84-8.15,14.38-56.84,58.57-99.11,112.32-113.25,18.96-64.71,77.06-109.26,142.74-112.5,12.58-.63,25.44.26,38.36,2.82,12.32,2.44,24.01,6.27,34.95,11.27C376.51,17.55,428.55.03,481.55,10.52c73.59,14.57,124.9,78.37,126.49,150.39,74.04,24.56,119.95,100.96,104.41,179.47Z"/></g></g></svg>