<?xml version="1.0" encoding="UTF-8"?><svg id="Layer_2" xmlns="http://www.w3.org/2000/svg" viewBox="0 0 722.07 751.81"><defs><style>.cls-1,.cls-2{stroke-linejoin:round;}.cls-1,.cls-2,.cls-3{fill:none;stroke-linecap:round;stroke-width:15px;}.cls-1,.cls-3{stroke:#010101;}.cls-2{stroke:#ffe193;}.cls-3{stroke-miterlimit:10;}</style></defs><g id="Icons"><g id="Thundercloud"><path id="Lightning_cloud" class="cls-1" d="M344.79,482.13c49.41,11.45,101.95,1.5,134.8-36.59,90.24,53.52,213.41-2,231.96-105.83,15.54-78.5-30.36-154.9-104.39-179.45,3.01-132.67-177.44-205.12-267.33-108.11-85.36-40.43-191.18,8.45-216.06,98.41-225.2,69.95-89.3,377.65,119.93,266.44"/><line id="Rain" class="cls-3" x1="380.21" y1="581.23" x2="307.36" y2="717.63"/><line id="Rain-2" class="cls-3" x1="165.36" y1="494.73" x2="92.52" y2="631.13"/><line id="Rain-3" class="cls-3" x1="509.94" y1="513.03" x2="437.09" y2="649.43"/><line id="Rain-4" class="cls-3" x1="553.37" y1="607.91" x2="480.52" y2="744.31"/><line id="Rain-5" class="cls-3" x1="201.79" y1="607.91" x2="128.94" y2="744.31"/><polyline id="Lightening" class="cls-2" points="297.6 435.62 233.36 554.03 315.57 537.33 257.69 647.04"/></g></g></svg>