<?xml version="1.0" encoding="UTF-8"?><svg id="Layer_2" xmlns="http://www.w3.org/2000/svg" viewBox="0 0 775.62 802.77"><defs><style>.cls-1{fill:none;stroke:#2d2d2c;stroke-linecap:round;stroke-linejoin:round;stroke-width:40px;}</style></defs><g id="Icons"><g id="Layer_2-2"><g id="_10_Day_Forecast"><g id="Umbrella"><path class="cls-1" d="M665.13,391.64c-59.88-32.5-68.17,71.05-127.27,77.83-51.5,5.77-75.4-59.51-149.7-60.06-4.31,0-8.62.22-12.91.69-2.11,0-4.12.5-6.09.82-1.28.18-2.52.41-3.71.69-9.94,1.93-19.58,5.18-28.66,9.66-1.6.73-3.16,1.56-4.58,2.38-27.47,14.56-47.2,36.17-71.23,43.58-2.42.78-4.9,1.37-7.42,1.79-5.22.91-10.53,1.07-15.79.46-59.15-6.64-67.43-110.19-127.27-77.83-60.84,33.05-128.92,51.55-93.07-22.89,9.16-19.32,18.63-37.54,28.43-54.66,2.93-5.17,5.91-10.3,8.88-15.29,2.98-4.99,6.41-10.62,9.66-15.75s6.45-10.07,9.71-14.92c1.79-2.7,3.57-5.36,5.4-7.97l4.58-6.59c1.65-2.33,3.34-4.58,5.04-6.96,3.36-4.58,6.74-9.06,10.16-13.46,5.07-6.68,10.3-13.08,15.7-19.18,2.98-3.43,5.95-6.82,9.16-10.12,1.1-1.24,2.2-2.43,3.34-3.62,3.05-3.2,6.03-6.26,8.93-9.16,3.57-3.66,7.19-7.19,10.85-10.62,9.16-8.51,18.31-16.45,27.47-23.81h.27c11.14-8.7,22.79-16.73,34.88-24.03,3.85-2.33,7.69-4.58,11.58-6.73,3.89-2.15,7.97-4.85,12.54-6.96l6.18-2.98c5.95-2.93,12.13-5.45,18.54-8.19,4.03-1.65,8.1-3.17,12.22-4.58l7.69-2.66,5.72-1.92c19.86-6.22,40.19-10.81,60.8-13.73,7-1.01,14.05-1.83,21.24-2.47,7.19-.64,14.19-1.14,21.42-1.51h.27c155.65,7.55,273.49,86.16,370.04,287.45,35.89,74.85-32.18,56.35-93.02,23.3Z"/><path class="cls-1" d="M388.16,410.86v328.28c0,31-25.13,56.13-56.13,56.13s-56.13-25.13-56.13-56.13"/><polyline class="cls-1" points="388.16 81.07 388.16 81.02 388.16 7.5"/></g></g></g></g></svg>